<?xml version="1.0" encoding="UTF-8" standalone="no"?>
<!-- Created with Inkscape (http://www.inkscape.org/) -->
<svg id="svg7384" xmlns:rdf="http://www.w3.org/1999/02/22-rdf-syntax-ns#" xmlns="http://www.w3.org/2000/svg" height="16" width="16" version="1.1" xmlns:cc="http://creativecommons.org/ns#" xmlns:dc="http://purl.org/dc/elements/1.1/">
 <metadata id="metadata90">
  <rdf:RDF>
   <cc:Work rdf:about="">
    <dc:format>image/svg+xml</dc:format>
    <dc:type rdf:resource="http://purl.org/dc/dcmitype/StillImage"/>
    <dc:title>Gnome Symbolic Icon Theme</dc:title>
   </cc:Work>
  </rdf:RDF>
 </metadata>
 <title id="title9167">Gnome Symbolic Icon Theme</title>
 <g id="layer12" transform="translate(-301 -727)">
  <path id="rect3861-0" style="fill:#bebebe" d="m301.53 731c-0.28913 0-0.53125 0.2422-0.53125 0.5312v10.938c0 0.2985 0.23264 0.5313 0.53125 0.5313h12.938c0.2986 0 0.53125-0.2327 0.53125-0.5313v-5.9375c0-0.289-0.24212-0.5312-0.53125-0.5312h-10.469v4.5c0 0.277-0.223 0.5-0.5 0.5s-0.5-0.223-0.5-0.5v-5c0-0.277 0.223-0.5 0.5-0.5h2.9688 6.5312v-1h-1v-1h-5.9688v-1.4688c0-0.289-0.24212-0.5312-0.53125-0.5312h-3.9688z"/>
  <path id="path26815-7-9" style="fill:#bebebe" d="m313 727v1.9967h-2v1.9967h2v1.9968h2v-1.9968h2v-1.9967h-2v-1.9967h-2z"/>
 </g>
</svg>
