<?xml version="1.0" encoding="UTF-8" standalone="no"?>
<!-- Created with Inkscape (http://www.inkscape.org/) -->
<svg id="svg7384" xmlns:rdf="http://www.w3.org/1999/02/22-rdf-syntax-ns#" xmlns="http://www.w3.org/2000/svg" height="16" width="16" version="1.1" xmlns:cc="http://creativecommons.org/ns#" xmlns:dc="http://purl.org/dc/elements/1.1/">
 <metadata id="metadata90">
  <rdf:RDF>
   <cc:Work rdf:about="">
    <dc:format>image/svg+xml</dc:format>
    <dc:type rdf:resource="http://purl.org/dc/dcmitype/StillImage"/>
    <dc:title>Gnome Symbolic Icon Theme</dc:title>
   </cc:Work>
  </rdf:RDF>
 </metadata>
 <title id="title9167">Gnome Symbolic Icon Theme</title>
 <g id="layer12" transform="translate(-441 -787)">
  <rect id="rect46078" style="color-rendering:auto;color:#000000;isolation:auto;mix-blend-mode:normal;paint-order:normal;shape-rendering:auto;solid-color:#000000;image-rendering:auto;enable-background:new;fill:#bebebe" rx="0" ry="0" height="14" width="2" y="788" x="442"/>
  <rect id="rect46080" style="color-rendering:auto;color:#000000;isolation:auto;mix-blend-mode:normal;paint-order:normal;shape-rendering:auto;solid-color:#000000;image-rendering:auto;enable-background:new;fill:#bebebe" rx="0" ry="0" transform="rotate(90)" width="2" y="-456" x="800" height="14"/>
  <path id="path46082" style="color-rendering:auto;text-decoration-color:#000000;color:#000000;shape-rendering:auto;solid-color:#000000;text-decoration-line:none;fill:#bebebe;mix-blend-mode:normal;block-progression:tb;text-indent:0;image-rendering:auto;white-space:normal;text-decoration-style:solid;isolation:auto;paint-order:normal;enable-background:new;text-transform:none" d="m454.5 788.07a0.50005 0.50005 0 0 0 -0.48633 0.51367c0.0174 1.1818-0.07 2.2841-0.71484 3.2109-0.64481 0.92683-1.8932 1.7616-4.4199 2.2695-2.7203 0.54687-4.3424 1.6884-5.3066 3.0625-0.96428 1.3741-1.2747 2.9288-1.5586 4.2793a0.50009 0.50009 0 1 0 0.97852 0.20703c0.28448-1.3532 0.58385-2.7485 1.4004-3.9121 0.81654-1.1636 2.1464-2.1462 4.6836-2.6562 2.6739-0.53756 4.213-1.4839 5.0449-2.6797 0.83193-1.1958 0.91082-2.5589 0.89258-3.7969a0.50005 0.50005 0 0 0 -0.51 -0.49z"/>
  <path id="path46084" style="opacity:0.33;color-rendering:auto;color:#000000;isolation:auto;mix-blend-mode:normal;paint-order:normal;shape-rendering:auto;solid-color:#000000;image-rendering:auto;enable-background:new;fill:#bebebe" d="m442.5 801.51c0.5684-2.7037 1.2581-5.3669 6.4967-6.5138 5.218-0.9552 5.0855-3.6476 6-6v12.558z"/>
 </g>
</svg>
